<svg xmlns="http://www.w3.org/2000/svg" viewBox="0 0 512 512" role="img" aria-label="Rocket app icon">
  <defs>
    <linearGradient id="bg" x1="64" y1="48" x2="448" y2="464" gradientUnits="userSpaceOnUse">
      <stop stop-color="#7c3aed"/>
      <stop offset="0.48" stop-color="#2563eb"/>
      <stop offset="1" stop-color="#101521"/>
    </linearGradient>
    <linearGradient id="rocket-body" x1="190" y1="86" x2="322" y2="344" gradientUnits="userSpaceOnUse">
      <stop stop-color="#ffffff"/>
      <stop offset="1" stop-color="#dbeafe"/>
    </linearGradient>
    <linearGradient id="flame" x1="256" y1="348" x2="256" y2="456" gradientUnits="userSpaceOnUse">
      <stop stop-color="#fde047"/>
      <stop offset="0.55" stop-color="#f97316"/>
      <stop offset="1" stop-color="#ef4444"/>
    </linearGradient>
  </defs>

  <rect width="512" height="512" rx="112" fill="url(#bg)"/>
  <circle cx="392" cy="112" r="72" fill="#38bdf8" opacity="0.18"/>
  <circle cx="118" cy="394" r="88" fill="#22c55e" opacity="0.13"/>

  <path d="M256 70c57 30 93 91 93 158 0 44-16 89-43 129H206c-27-40-43-85-43-129 0-67 36-128 93-158Z" fill="#020617" opacity="0.22"/>
  <path d="M256 62c57 30 93 91 93 158 0 44-16 89-43 129H206c-27-40-43-85-43-129 0-67 36-128 93-158Z" fill="url(#rocket-body)"/>

  <path d="M179 260c-40 20-69 58-77 105-2 14 13 24 25 16l80-48-28-73Z" fill="#60a5fa"/>
  <path d="M333 260c40 20 69 58 77 105 2 14-13 24-25 16l-80-48 28-73Z" fill="#60a5fa"/>

  <circle cx="256" cy="176" r="48" fill="#1d4ed8"/>
  <circle cx="256" cy="176" r="34" fill="#38bdf8"/>
  <circle cx="246" cy="164" r="11" fill="#e0f2fe"/>

  <path d="M206 349h100c-13 23-30 42-50 56-20-14-37-33-50-56Z" fill="#c7d2fe"/>
  <path d="M215 356h82l-18 51c-6 19-14 36-23 51-9-15-17-32-23-51l-18-51Z" fill="url(#flame)"/>
  <path d="M256 62c18 10 34 23 48 39h-96c14-16 30-29 48-39Z" fill="#ffffff"/>
</svg>
